<?xml version="1.0" encoding="UTF-8" standalone="no"?>
<!DOCTYPE svg PUBLIC "-//W3C//DTD SVG 1.1//EN"
 "http://www.w3.org/Graphics/SVG/1.1/DTD/svg11.dtd">
<!-- Generated by graphviz version 2.40.1 (20161225.0304)
 -->
<!-- Title: G Pages: 1 -->
<svg width="301pt" height="372pt"
 viewBox="0.00 0.00 301.06 372.00" xmlns="http://www.w3.org/2000/svg" xmlns:xlink="http://www.w3.org/1999/xlink">
<g id="graph0" class="graph" transform="scale(1 1) rotate(0) translate(4 368)">
<title>G</title>
<polygon fill="#ffffff" stroke="transparent" points="-4,4 -4,-368 297.0635,-368 297.0635,4 -4,4"/>
<!-- A0 -->
<g id="node1" class="node">
<title>A0</title>
<polygon fill="none" stroke="#000000" points="99.616,-332 99.616,-364 179.616,-364 179.616,-332 99.616,-332"/>
<text text-anchor="start" x="127.113" y="-345" font-family="Helvetica,sans-Serif" font-size="10.00" fill="#000000">Menu</text>
<polygon fill="none" stroke="#000000" points="99.616,-276 99.616,-332 179.616,-332 179.616,-276 99.616,-276"/>
<text text-anchor="start" x="109.6125" y="-313" font-family="Helvetica,sans-Serif" font-size="10.00" fill="#000000">platoPrincipal</text>
<text text-anchor="start" x="124.609" y="-301" font-family="Helvetica,sans-Serif" font-size="10.00" fill="#000000">bebida</text>
<text text-anchor="start" x="125.7235" y="-289" font-family="Helvetica,sans-Serif" font-size="10.00" fill="#000000">postre</text>
<polygon fill="none" stroke="#000000" points="99.616,-244 99.616,-276 179.616,-276 179.616,-244 99.616,-244"/>
<text text-anchor="start" x="110.7315" y="-257" font-family="Helvetica,sans-Serif" font-size="10.00" fill="#000000">armarMenu()</text>
</g>
<!-- A1 -->
<g id="node2" class="node">
<title>A1</title>
<polygon fill="none" stroke="#000000" points="28.616,-162 28.616,-194 141.616,-194 141.616,-162 28.616,-162"/>
<text text-anchor="start" x="65.95" y="-175" font-family="Helvetica,sans-Serif" font-size="10.00" fill="#000000">Principal</text>
<polygon fill="none" stroke="#000000" points="28.616,-118 28.616,-162 141.616,-162 141.616,-118 28.616,-118"/>
<text text-anchor="start" x="67.055" y="-143" font-family="Helvetica,sans-Serif" font-size="10.00" fill="#000000">proteina</text>
<text text-anchor="start" x="45.663" y="-131" font-family="Helvetica,sans-Serif" font-size="10.00" fill="#000000">acompaniamiento</text>
<polygon fill="none" stroke="#000000" points="28.616,-86 28.616,-118 141.616,-118 141.616,-86 28.616,-86"/>
<text text-anchor="start" x="38.176" y="-99" font-family="Helvetica,sans-Serif" font-size="10.00" fill="#000000">armarPlatoPrincipal()</text>
</g>
<!-- A0&#45;&gt;A1 -->
<g id="edge1" class="edge">
<title>A0&#45;&gt;A1</title>
<path fill="none" stroke="#000000" d="M115.555,-232.2545C112.373,-222.7662 109.1285,-213.0919 105.9957,-203.7504"/>
<polygon fill="#000000" stroke="#000000" points="115.6327,-232.4864 121.3329,-236.9032 119.4483,-243.8637 113.7481,-239.4469 115.6327,-232.4864"/>
<polygon fill="#000000" stroke="#000000" points="102.7787,-194.1578 110.2248,-202.208 104.3685,-198.8983 105.9584,-203.6388 105.9584,-203.6388 105.9584,-203.6388 104.3685,-198.8983 101.6919,-205.0697 102.7787,-194.1578 102.7787,-194.1578"/>
</g>
<!-- A2 -->
<g id="node3" class="node">
<title>A2</title>
<polygon fill="none" stroke="#000000" points="218.2401,-158 158.9919,-158 158.9919,-122 218.2401,-122 218.2401,-158"/>
<text text-anchor="middle" x="188.616" y="-137" font-family="Helvetica,sans-Serif" font-size="10.00" fill="#000000">Bebida</text>
</g>
<!-- A0&#45;&gt;A2 -->
<g id="edge2" class="edge">
<title>A0&#45;&gt;A2</title>
<path fill="none" stroke="#000000" d="M161.0338,-232.316C167.8395,-209.5378 174.9676,-185.6804 180.2723,-167.9259"/>
<polygon fill="#000000" stroke="#000000" points="161.0189,-232.3659 163.1338,-239.2599 157.5836,-243.8637 155.4687,-236.9697 161.0189,-232.3659"/>
<polygon fill="#000000" stroke="#000000" points="183.1687,-158.2317 184.6175,-169.1015 181.7373,-163.0225 180.3059,-167.8132 180.3059,-167.8132 180.3059,-167.8132 181.7373,-163.0225 175.9942,-166.5249 183.1687,-158.2317 183.1687,-158.2317"/>
</g>
<!-- A3 -->
<g id="node4" class="node">
<title>A3</title>
<polygon fill="none" stroke="#000000" points="293.0111,-158 236.2209,-158 236.2209,-122 293.0111,-122 293.0111,-158"/>
<text text-anchor="middle" x="264.616" y="-137" font-family="Helvetica,sans-Serif" font-size="10.00" fill="#000000">Postre</text>
</g>
<!-- A0&#45;&gt;A3 -->
<g id="edge3" class="edge">
<title>A0&#45;&gt;A3</title>
<path fill="none" stroke="#000000" d="M187.1985,-245.3146C203.682,-224.8157 219.9452,-204.3517 227.616,-194 234.1115,-185.2344 240.9385,-175.4492 246.9349,-166.6418"/>
<polygon fill="#000000" stroke="#000000" points="187.167,-245.3538 186.5185,-252.5357 179.6396,-254.6993 180.2881,-247.5174 187.167,-245.3538"/>
<polygon fill="#000000" stroke="#000000" points="252.6115,-158.2344 250.7452,-169.0403 249.8136,-162.3783 247.0157,-166.5222 247.0157,-166.5222 247.0157,-166.5222 249.8136,-162.3783 243.2862,-164.0041 252.6115,-158.2344 252.6115,-158.2344"/>
</g>
<!-- A5 -->
<g id="node6" class="node">
<title>A5</title>
<polygon fill="none" stroke="#000000" points="65.3484,-36 -.1164,-36 -.1164,0 65.3484,0 65.3484,-36"/>
<text text-anchor="middle" x="32.616" y="-15" font-family="Helvetica,sans-Serif" font-size="10.00" fill="#000000">Proteina</text>
</g>
<!-- A1&#45;&gt;A5 -->
<g id="edge7" class="edge">
<title>A1&#45;&gt;A5</title>
<path fill="none" stroke="#000000" d="M56.6793,-74.4563C52.3118,-64.2094 48.0176,-54.1345 44.2933,-45.3967"/>
<polygon fill="#000000" stroke="#000000" points="56.8,-74.7395 62.8323,-78.6906 61.5052,-85.7785 55.4729,-81.8274 56.8,-74.7395"/>
<polygon fill="#000000" stroke="#000000" points="40.357,-36.1617 48.4177,-43.5965 42.3176,-40.7613 44.2781,-45.3609 44.2781,-45.3609 44.2781,-45.3609 42.3176,-40.7613 40.1384,-47.1254 40.357,-36.1617 40.357,-36.1617"/>
</g>
<!-- A6 -->
<g id="node7" class="node">
<title>A6</title>
<polygon fill="none" stroke="#000000" points="191.632,-36 83.6,-36 83.6,0 191.632,0 191.632,-36"/>
<text text-anchor="middle" x="137.616" y="-15" font-family="Helvetica,sans-Serif" font-size="10.00" fill="#000000">Acompaniamiento</text>
</g>
<!-- A1&#45;&gt;A6 -->
<g id="edge8" class="edge">
<title>A1&#45;&gt;A6</title>
<path fill="none" stroke="#000000" d="M113.0899,-74.4563C117.5414,-64.2094 121.9182,-54.1345 125.7142,-45.3967"/>
<polygon fill="#000000" stroke="#000000" points="112.9527,-74.7723 114.2307,-81.8692 108.1712,-85.7785 106.8932,-78.6816 112.9527,-74.7723"/>
<polygon fill="#000000" stroke="#000000" points="129.7261,-36.1617 129.8689,-47.1266 127.7338,-40.7476 125.7415,-45.3336 125.7415,-45.3336 125.7415,-45.3336 127.7338,-40.7476 121.6142,-43.5405 129.7261,-36.1617 129.7261,-36.1617"/>
</g>
<!-- A4 -->
<g id="node5" class="node">
<title>A4</title>
<polygon fill="none" stroke="#000000" points="197.616,-310 197.616,-342 255.616,-342 255.616,-310 197.616,-310"/>
<text text-anchor="start" x="207.17" y="-323" font-family="Helvetica,sans-Serif" font-size="10.00" fill="#000000">Alimento</text>
<polygon fill="none" stroke="#000000" points="197.616,-266 197.616,-310 255.616,-310 255.616,-266 197.616,-266"/>
<text text-anchor="start" x="209.669" y="-291" font-family="Helvetica,sans-Serif" font-size="10.00" fill="#000000">nombre</text>
<text text-anchor="start" x="213.0035" y="-279" font-family="Helvetica,sans-Serif" font-size="10.00" fill="#000000">precio</text>
</g>
<!-- A4&#45;&gt;A1 -->
<g id="edge4" class="edge">
<title>A4&#45;&gt;A1</title>
<path fill="none" stroke="#000000" d="M198.6549,-257.5408C195.4105,-252.8652 192.035,-248.2717 188.616,-244 174.3353,-226.158 157.3284,-208.0799 141.2469,-192.1116"/>
<polygon fill="none" stroke="#000000" points="195.8519,-259.6449 204.334,-265.9934 201.6622,-255.741 195.8519,-259.6449"/>
</g>
<!-- A4&#45;&gt;A2 -->
<g id="edge5" class="edge">
<title>A4&#45;&gt;A2</title>
<path fill="none" stroke="#000000" d="M215.5151,-256.0908C207.9095,-223.2667 198.2495,-181.5761 192.8187,-158.1381"/>
<polygon fill="none" stroke="#000000" points="212.1355,-257.0111 217.8025,-265.9629 218.9548,-255.4309 212.1355,-257.0111"/>
</g>
<!-- A4&#45;&gt;A3 -->
<g id="edge6" class="edge">
<title>A4&#45;&gt;A3</title>
<path fill="none" stroke="#000000" d="M237.7169,-256.0908C245.3225,-223.2667 254.9825,-181.5761 260.4133,-158.1381"/>
<polygon fill="none" stroke="#000000" points="234.2772,-255.4309 235.4295,-265.9629 241.0965,-257.0111 234.2772,-255.4309"/>
</g>
</g>
</svg>
