<?xml version="1.0" encoding="UTF-8" standalone="no"?>
<!DOCTYPE svg PUBLIC "-//W3C//DTD SVG 1.1//EN"
 "http://www.w3.org/Graphics/SVG/1.1/DTD/svg11.dtd">
<!-- Generated by graphviz version 2.40.1 (20161225.0304)
 -->
<!-- Title: G Pages: 1 -->
<svg width="360pt" height="486pt"
 viewBox="0.00 0.00 360.06 486.00" xmlns="http://www.w3.org/2000/svg" xmlns:xlink="http://www.w3.org/1999/xlink">
<g id="graph0" class="graph" transform="scale(1 1) rotate(0) translate(4 482)">
<title>G</title>
<polygon fill="#ffffff" stroke="transparent" points="-4,4 -4,-482 356.06,-482 356.06,4 -4,4"/>
<!-- A0 -->
<g id="node1" class="node">
<title>A0</title>
<polygon fill="none" stroke="#000000" points="158.6125,-446 158.6125,-478 238.6125,-478 238.6125,-446 158.6125,-446"/>
<text text-anchor="start" x="186.1095" y="-459" font-family="Helvetica,sans-Serif" font-size="10.00" fill="#000000">Menu</text>
<polygon fill="none" stroke="#000000" points="158.6125,-390 158.6125,-446 238.6125,-446 238.6125,-390 158.6125,-390"/>
<text text-anchor="start" x="168.609" y="-427" font-family="Helvetica,sans-Serif" font-size="10.00" fill="#000000">platoPrincipal</text>
<text text-anchor="start" x="183.6055" y="-415" font-family="Helvetica,sans-Serif" font-size="10.00" fill="#000000">bebida</text>
<text text-anchor="start" x="184.72" y="-403" font-family="Helvetica,sans-Serif" font-size="10.00" fill="#000000">postre</text>
<polygon fill="none" stroke="#000000" points="158.6125,-358 158.6125,-390 238.6125,-390 238.6125,-358 158.6125,-358"/>
<text text-anchor="start" x="169.728" y="-371" font-family="Helvetica,sans-Serif" font-size="10.00" fill="#000000">armarMenu()</text>
</g>
<!-- A1 -->
<g id="node2" class="node">
<title>A1</title>
<polygon fill="none" stroke="#000000" points="87.6125,-276 87.6125,-308 200.6125,-308 200.6125,-276 87.6125,-276"/>
<text text-anchor="start" x="124.9465" y="-289" font-family="Helvetica,sans-Serif" font-size="10.00" fill="#000000">Principal</text>
<polygon fill="none" stroke="#000000" points="87.6125,-232 87.6125,-276 200.6125,-276 200.6125,-232 87.6125,-232"/>
<text text-anchor="start" x="126.0515" y="-257" font-family="Helvetica,sans-Serif" font-size="10.00" fill="#000000">proteina</text>
<text text-anchor="start" x="104.6595" y="-245" font-family="Helvetica,sans-Serif" font-size="10.00" fill="#000000">acompaniamiento</text>
<polygon fill="none" stroke="#000000" points="87.6125,-200 87.6125,-232 200.6125,-232 200.6125,-200 87.6125,-200"/>
<text text-anchor="start" x="97.1725" y="-213" font-family="Helvetica,sans-Serif" font-size="10.00" fill="#000000">armarPlatoPrincipal()</text>
</g>
<!-- A0&#45;&gt;A1 -->
<g id="edge1" class="edge">
<title>A0&#45;&gt;A1</title>
<path fill="none" stroke="#000000" d="M174.5515,-346.2545C171.3695,-336.7662 168.125,-327.0919 164.9922,-317.7504"/>
<polygon fill="#000000" stroke="#000000" points="174.6292,-346.4864 180.3294,-350.9032 178.4448,-357.8637 172.7446,-353.4469 174.6292,-346.4864"/>
<polygon fill="#000000" stroke="#000000" points="161.7752,-308.1578 169.2213,-316.208 163.365,-312.8983 164.9549,-317.6388 164.9549,-317.6388 164.9549,-317.6388 163.365,-312.8983 160.6884,-319.0697 161.7752,-308.1578 161.7752,-308.1578"/>
</g>
<!-- A2 -->
<g id="node3" class="node">
<title>A2</title>
<polygon fill="none" stroke="#000000" points="277.2366,-272 217.9884,-272 217.9884,-236 277.2366,-236 277.2366,-272"/>
<text text-anchor="middle" x="247.6125" y="-251" font-family="Helvetica,sans-Serif" font-size="10.00" fill="#000000">Bebida</text>
</g>
<!-- A0&#45;&gt;A2 -->
<g id="edge2" class="edge">
<title>A0&#45;&gt;A2</title>
<path fill="none" stroke="#000000" d="M220.0303,-346.316C226.836,-323.5378 233.9641,-299.6804 239.2688,-281.9259"/>
<polygon fill="#000000" stroke="#000000" points="220.0154,-346.3659 222.1303,-353.2599 216.5801,-357.8637 214.4652,-350.9697 220.0154,-346.3659"/>
<polygon fill="#000000" stroke="#000000" points="242.1652,-272.2317 243.614,-283.1015 240.7338,-277.0225 239.3024,-281.8132 239.3024,-281.8132 239.3024,-281.8132 240.7338,-277.0225 234.9907,-280.5249 242.1652,-272.2317 242.1652,-272.2317"/>
</g>
<!-- A3 -->
<g id="node4" class="node">
<title>A3</title>
<polygon fill="none" stroke="#000000" points="352.0076,-272 295.2174,-272 295.2174,-236 352.0076,-236 352.0076,-272"/>
<text text-anchor="middle" x="323.6125" y="-251" font-family="Helvetica,sans-Serif" font-size="10.00" fill="#000000">Postre</text>
</g>
<!-- A0&#45;&gt;A3 -->
<g id="edge3" class="edge">
<title>A0&#45;&gt;A3</title>
<path fill="none" stroke="#000000" d="M246.195,-359.3146C262.6785,-338.8157 278.9417,-318.3517 286.6125,-308 293.108,-299.2344 299.935,-289.4492 305.9314,-280.6418"/>
<polygon fill="#000000" stroke="#000000" points="246.1635,-359.3538 245.515,-366.5357 238.6361,-368.6993 239.2846,-361.5174 246.1635,-359.3538"/>
<polygon fill="#000000" stroke="#000000" points="311.608,-272.2344 309.7417,-283.0403 308.8101,-276.3783 306.0122,-280.5222 306.0122,-280.5222 306.0122,-280.5222 308.8101,-276.3783 302.2827,-278.0041 311.608,-272.2344 311.608,-272.2344"/>
</g>
<!-- A5 -->
<g id="node6" class="node">
<title>A5</title>
<polygon fill="none" stroke="#000000" points="67.6125,-118 67.6125,-150 124.6125,-150 124.6125,-118 67.6125,-118"/>
<text text-anchor="start" x="77.4965" y="-131" font-family="Helvetica,sans-Serif" font-size="10.00" fill="#000000">Proteina</text>
<polygon fill="none" stroke="#000000" points="67.6125,-86 67.6125,-118 124.6125,-118 124.6125,-86 67.6125,-86"/>
<text text-anchor="start" x="79.1655" y="-99" font-family="Helvetica,sans-Serif" font-size="10.00" fill="#000000">nombre</text>
</g>
<!-- A1&#45;&gt;A5 -->
<g id="edge7" class="edge">
<title>A1&#45;&gt;A5</title>
<path fill="none" stroke="#000000" d="M120.4056,-188.2471C116.9571,-178.4763 113.4867,-168.6436 110.2797,-159.5571"/>
<polygon fill="#000000" stroke="#000000" points="120.5098,-188.5425 126.2787,-192.8692 124.5037,-199.8584 118.7348,-195.5318 120.5098,-188.5425"/>
<polygon fill="#000000" stroke="#000000" points="106.9166,-150.0283 114.4883,-157.9605 108.5807,-154.7433 110.2449,-159.4582 110.2449,-159.4582 110.2449,-159.4582 108.5807,-154.7433 106.0014,-160.9559 106.9166,-150.0283 106.9166,-150.0283"/>
</g>
<!-- A6 -->
<g id="node7" class="node">
<title>A6</title>
<polygon fill="none" stroke="#000000" points="142.6125,-118 142.6125,-150 242.6125,-150 242.6125,-118 142.6125,-118"/>
<text text-anchor="start" x="152.6045" y="-131" font-family="Helvetica,sans-Serif" font-size="10.00" fill="#000000">Acompaniamiento</text>
<polygon fill="none" stroke="#000000" points="142.6125,-86 142.6125,-118 242.6125,-118 242.6125,-86 142.6125,-86"/>
<text text-anchor="start" x="175.6655" y="-99" font-family="Helvetica,sans-Serif" font-size="10.00" fill="#000000">nombre</text>
</g>
<!-- A1&#45;&gt;A6 -->
<g id="edge8" class="edge">
<title>A1&#45;&gt;A6</title>
<path fill="none" stroke="#000000" d="M167.3029,-188.2471C170.8232,-178.4763 174.3659,-168.6436 177.6397,-159.5571"/>
<polygon fill="#000000" stroke="#000000" points="167.187,-188.5688 168.9164,-195.5695 163.1194,-199.8584 161.39,-192.8577 167.187,-188.5688"/>
<polygon fill="#000000" stroke="#000000" points="181.0729,-150.0283 181.9168,-160.9617 179.378,-154.7323 177.6832,-159.4363 177.6832,-159.4363 177.6832,-159.4363 179.378,-154.7323 173.4496,-157.9109 181.0729,-150.0283 181.0729,-150.0283"/>
</g>
<!-- A4 -->
<g id="node5" class="node">
<title>A4</title>
<polygon fill="none" stroke="#000000" points="256.6125,-424 256.6125,-456 314.6125,-456 314.6125,-424 256.6125,-424"/>
<text text-anchor="start" x="266.1665" y="-437" font-family="Helvetica,sans-Serif" font-size="10.00" fill="#000000">Alimento</text>
<polygon fill="none" stroke="#000000" points="256.6125,-380 256.6125,-424 314.6125,-424 314.6125,-380 256.6125,-380"/>
<text text-anchor="start" x="268.6655" y="-405" font-family="Helvetica,sans-Serif" font-size="10.00" fill="#000000">nombre</text>
<text text-anchor="start" x="272" y="-393" font-family="Helvetica,sans-Serif" font-size="10.00" fill="#000000">precio</text>
</g>
<!-- A4&#45;&gt;A1 -->
<g id="edge4" class="edge">
<title>A4&#45;&gt;A1</title>
<path fill="none" stroke="#000000" d="M257.6514,-371.5408C254.407,-366.8652 251.0315,-362.2717 247.6125,-358 233.3318,-340.158 216.3249,-322.0799 200.2434,-306.1116"/>
<polygon fill="none" stroke="#000000" points="254.8484,-373.6449 263.3305,-379.9934 260.6587,-369.741 254.8484,-373.6449"/>
</g>
<!-- A4&#45;&gt;A2 -->
<g id="edge5" class="edge">
<title>A4&#45;&gt;A2</title>
<path fill="none" stroke="#000000" d="M274.5116,-370.0908C266.906,-337.2667 257.246,-295.5761 251.8152,-272.1381"/>
<polygon fill="none" stroke="#000000" points="271.132,-371.0111 276.799,-379.9629 277.9513,-369.4309 271.132,-371.0111"/>
</g>
<!-- A4&#45;&gt;A3 -->
<g id="edge6" class="edge">
<title>A4&#45;&gt;A3</title>
<path fill="none" stroke="#000000" d="M296.7134,-370.0908C304.319,-337.2667 313.979,-295.5761 319.4098,-272.1381"/>
<polygon fill="none" stroke="#000000" points="293.2737,-369.4309 294.426,-379.9629 300.093,-371.0111 293.2737,-369.4309"/>
</g>
<!-- A7 -->
<g id="node8" class="node">
<title>A7</title>
<polygon fill="none" stroke="#000000" points="55.338,-36 -.113,-36 -.113,0 55.338,0 55.338,-36"/>
<text text-anchor="middle" x="27.6125" y="-15" font-family="Helvetica,sans-Serif" font-size="10.00" fill="#000000">Carne</text>
</g>
<!-- A5&#45;&gt;A7 -->
<g id="edge9" class="edge">
<title>A5&#45;&gt;A7</title>
<path fill="none" stroke="#000000" d="M68.0824,-77.5145C58.3143,-63.1497 47.8065,-47.697 39.9465,-36.1382"/>
<polygon fill="none" stroke="#000000" points="65.2052,-79.5077 73.7226,-85.8089 70.9937,-75.5715 65.2052,-79.5077"/>
</g>
<!-- A8 -->
<g id="node9" class="node">
<title>A8</title>
<polygon fill="none" stroke="#000000" points="127.6125,-36 73.6125,-36 73.6125,0 127.6125,0 127.6125,-36"/>
<text text-anchor="middle" x="100.6125" y="-15" font-family="Helvetica,sans-Serif" font-size="10.00" fill="#000000">Pollo</text>
</g>
<!-- A5&#45;&gt;A8 -->
<g id="edge10" class="edge">
<title>A5&#45;&gt;A8</title>
<path fill="none" stroke="#000000" d="M97.7378,-75.4941C98.4268,-61.714 99.1547,-47.1569 99.7056,-36.1382"/>
<polygon fill="none" stroke="#000000" points="94.2259,-75.6466 97.2221,-85.8089 101.2172,-75.9962 94.2259,-75.6466"/>
</g>
<!-- A9 -->
<g id="node10" class="node">
<title>A9</title>
<polygon fill="none" stroke="#000000" points="223.2962,-36 153.9288,-36 153.9288,0 223.2962,0 223.2962,-36"/>
<text text-anchor="middle" x="188.6125" y="-15" font-family="Helvetica,sans-Serif" font-size="10.00" fill="#000000">Ensalada</text>
</g>
<!-- A6&#45;&gt;A9 -->
<g id="edge11" class="edge">
<title>A6&#45;&gt;A9</title>
<path fill="none" stroke="#000000" d="M190.9123,-75.4941C190.3611,-61.714 189.7788,-47.1569 189.338,-36.1382"/>
<polygon fill="none" stroke="#000000" points="187.4279,-75.9568 191.3249,-85.8089 194.4223,-75.677 187.4279,-75.9568"/>
</g>
<!-- A10 -->
<g id="node11" class="node">
<title>A10</title>
<polygon fill="none" stroke="#000000" points="295.6125,-36 241.6125,-36 241.6125,0 295.6125,0 295.6125,-36"/>
<text text-anchor="middle" x="268.6125" y="-15" font-family="Helvetica,sans-Serif" font-size="10.00" fill="#000000">Sopa</text>
</g>
<!-- A6&#45;&gt;A10 -->
<g id="edge12" class="edge">
<title>A6&#45;&gt;A10</title>
<path fill="none" stroke="#000000" d="M223.3815,-77.5145C234.2987,-63.1497 246.0428,-47.697 254.8274,-36.1382"/>
<polygon fill="none" stroke="#000000" points="220.342,-75.7295 217.0777,-85.8089 225.9152,-79.9651 220.342,-75.7295"/>
</g>
</g>
</svg>
